<svg version="1" xmlns="http://www.w3.org/2000/svg" width="666.667" height="666.667" viewBox="0 0 500.000000 500.000000"><path d="M425 5.6c-2.5.7-6.2 1.4-8.3 1.4-4.7 0-9.5 2-12.4 5.1-3.2 3.5-7 12.5-8.3 19.7-.6 3.4-2.5 9.3-4.1 13-6.5 14.5-10.1 27.4-17.9 64.5-9.6 46.1-15.3 64.7-20.9 68.4-3.8 2.5-17.8 2.8-36.3.8-14.8-1.5-16.1-1.5-25.4.2-15.7 2.8-32.6 2.3-49.9-1.5-40.8-9.1-60.4-11.7-81-10.8-14.6.6-25.7 2.6-38.9 7-4.2 1.4-8.1 2.6-8.6 2.6s-3.1-2-5.7-4.5c-5.8-5.3-12.7-9.2-19.7-11.1-5.2-1.4-19.7-1.7-25.1-.5-2.6.6-2.8.8-1.3 1.7 1.4.8.5 1.4-4.8 3.3-4.6 1.6-6.2 2.6-5.3 3.2.8.5 2.3.6 3.4.3s-1.3 1.3-5.4 3.5c-6.4 3.5-14.6 9.9-13.8 10.7.2.2 2.5-.3 5.2-1.2l4.9-1.4-3.6 3.7c-4.9 5.1-8.8 11.1-8.8 13.5 0 2 .1 2 3.5-.1 1.9-1.1 3.5-1.9 3.5-1.8 0 .1-.7 2.4-1.5 5.1-1.7 5.5-2 13.2-.6 14.1.5.3 1.3-.4 1.6-1.6.9-2.9 1.3-2.1 2.6 4.7 1.4 7.8 4.9 16 6 14.2.5-.7.9-2.7.9-4.3v-3l2.5 3c1.3 1.6 3.6 5.1 5 7.7l2.6 4.7-1.1 25.3c-.6 13.9-1.3 26.5-1.6 28-.8 3.9.4 7.1 2.3 6.4 1.2-.5 1.4-.1.9 1.6-.3 1.3-.9 4.2-1.2 6.5-.6 3.9-.5 4.3 1.5 4.3 1.2 0 2.4.7 2.7 1.5.3.8.1 7.7-.5 15.2-1 12.3-1.7 15.4-6.2 28.8-2.8 8.2-6.9 19.5-9.1 24.9-5 12.7-5.5 17.2-3.3 28.7 1.8 9.4 1.8 10.7-.1 47.9-.7 12.3-.4 13.8 5.9 28.4 4.1 9.7 4.8 10 19 10.4 6.7.2 11.9 0 11.5-.4-.4-.4-4.3-2.8-8.5-5.3-4.3-2.6-8.3-5.8-9-7.2-2.8-5.9 6.5-57.6 16-88.9l3.2-10.5.5 5.5.5 5.5 6-11.5c5.6-10.7 6-11.3 6.3-8.2.3 3.3.5 3.1 9.2-8.6 9-12.3 11.8-15.2 10.5-11.3-.8 2.7.8 2.7 4.7 0 1.6-1.2 3.1-1.9 3.4-1.7.2.3-.2 5.1-1.1 10.6-2 13.2-2 17.9-.1 16.3 1.1-1 1.3.8 1.2 11.3-.1 11 .8 16.5 2.1 12.8.8-2.2 2-1.2 2.6 2.2.9 5.4 5.3 13.5 11.9 21.6 8.5 10.6 24.6 32.1 30.5 41 11.4 16.9 25.6 25.7 33.1 20.4 3.7-2.6 2.9-6.6-2.3-10.8-6.9-5.7-20.9-23.9-26.1-33.9-5.1-9.9-14.8-36.6-16.9-46.6-1.8-8.4-1.1-10 10.3-22.4 5.1-5.6 12.3-15 16.8-22.2 4.4-6.8 8.2-12.4 8.5-12.5.4 0 3.1 4.1 6 9.1l5.4 9 .5-5.8.5-5.8 2.9 9.2c2.9 9.5 4.2 11.4 4.8 6.6.3-2.6.4-2.6 3.3 1.8l3 4.4.3-5.5.4-5.5 2.7 6.9c1.4 3.8 3.1 7.1 3.7 7.3.6.2 1.6-2.7 2.4-6.9l1.3-7.3 2.5 5.5 2.4 5.5 2.9-5.5 2.8-5.5.1 4.7c0 2.7.3 4.8.6 4.8.4 0 3.1-2.6 6-5.8l5.4-5.7v4.2c0 2.4.4 4.3.8 4.3s2.9-1.3 5.5-3c2.6-1.6 4.9-3 5.1-3 .2 0 .6 6 1 13.2.8 15.3 2.7 28.4 4 28 .5-.2 1.8 2.3 2.8 5.5 1.1 3.2 4.9 12 8.4 19.6 8.8 18.8 9.8 23.2 9 38.2-.7 11.5-.6 12.2 1.6 15.4 1.3 1.9 3 3.7 3.8 4.2 16.2 8 17 8.3 26 8.7 4.9.2 9.7.1 10.6-.2 1.7-.6 1.7-.8.1-2.4-1-.9-5-3.1-9-4.7-6.6-2.8-7.4-3.4-9.6-7.9-1.8-3.6-2.5-6.6-2.5-11.5-.1-7.4-.4-6.9 12.8-23.1 10.2-12.7 16.1-18.6 26.9-27.3 9.8-7.9 15.2-14 16.4-18.5.6-2.6-4.2-22.3-8.8-36-1.6-4.7-2.9-8.9-2.9-9.4 0-.4 2.8-2.2 6.3-3.9 10.2-5.2 20-11 23.1-13.8l2.8-2.6-.7 2.5c-.4 1.4-1 3.1-1.2 3.7-.3.7-.1 1.3.5 1.3 1.7 0 9.7-9.9 14.1-17.5 2.8-4.9 4.1-6.3 4.1-4.8 0 1.3.4 2.3.8 2.3 1.5 0 15.3-22.1 20.9-33.3 8.5-17.1 11.3-25.5 16.6-49.2 6.2-27.5 6.2-27.6 6.2-85 0-57.2-.2-54.5 5.6-63.7 3.2-5 7.8-7.8 12.9-7.8 8.8 0 17-4.5 17-9.3 0-1.6.7-2.6 2-3 2.6-.7 2.7-5.8.1-8.1-1.4-1.3-1.8-2.6-1.4-5 .7-4.3-.8-5.3-9.2-5.8-10.2-.7-13.9-2.8-19.2-11-2.4-3.8-5.4-7.5-6.6-8.2-2.5-1.7-12.3-3.6-18-3.6h-3.9l6.2-6.6c11.2-12.1 11.5-16.5 1.1-16.3-3.1 0-7.6.7-10.1 1.5zM318.5 388.3c.5-1.5 1.1-.9 3.1 3 2.4 4.6 4.4 5.4 4.4 1.9.1-1 .9-.2 2 1.8 1.8 3.4 1.9 3.5 2.7 1.2.8-2.1 1-1.8 2.1 2.8l1.2 5.2-8.7 9.5c-4.9 5.2-10.5 11.4-12.5 13.7l-3.7 4.1v-10c-.1-9 .8-20 2.5-32.4l.6-4.3 2.7 2.6c2.6 2.5 2.9 2.6 3.6.9z"/></svg>