<svg version="1" xmlns="http://www.w3.org/2000/svg" width="666.667" height="666.667" viewBox="0 0 500.000000 500.000000"><path d="M426.5 5.6c-2.7.8-7.3 1.6-10.2 1.8-9.9.6-15.8 6.9-18.9 20.1-2.1 9.2-3.4 13-8.3 24.7-5 11.8-8.2 24.2-16 62.3-5.7 27.8-13.2 54.9-16.7 60.3-.8 1.3-3.2 3.1-5.2 3.9-3.8 1.6-12.4 1.5-43.4-.3-8-.5-13.4-.2-21.5 1.1-15.7 2.6-26.6 1.7-55.6-4.4-34.8-7.4-43.4-8.5-63.7-8.5-19.4 0-30.5 1.8-46.2 7.3l-8.2 3-5.1-4.8c-6.5-6.1-12.5-9.6-20.1-11.5-6.4-1.6-16.1-2-22.7-1-3.8.7-5.2 2.4-1.9 2.5.9 0-1.1 1.1-4.6 2.3-7.8 2.9-8.5 3.6-4.1 3.6 3.1.1 2.8.4-4.9 4.4-12.6 6.7-18 12.4-7.9 8.6 2.8-1.1 5.3-2 5.4-2 .1 0-2.3 2.5-5.2 5.5-5.2 5.5-9.2 12.1-8.1 13.3.4.3 2-.2 3.5-1.1 4-2.3 4.4-2.2 2.7 1.1-1.8 3.5-3.1 12.5-2.1 14.9.6 1.6.9 1.4 2.3-1.2l1.6-3 .7 6.6c.4 3.6 1.7 9 3 11.9l2.3 5.3 1.1-3.9 1.1-3.9 4.2 6.5c2.4 3.5 4.5 7.4 4.8 8.7.5 1.7-.8 39.7-1.8 55.3-.3 3.9.2 5.2 1.8 4.6 1.4-.5 1.5-.1.9 3.1-1.5 6.9-1.2 8.8 1.3 9.1 2.6.4 2.8 2.6 1.1 20.2-1.1 12.2-3.3 19.9-13.4 46.5-6.7 17.8-7 20.1-4.9 31.6 1.4 8 1.6 12.1.8 27.9-1.5 33.2-1.5 33.9 3.7 46 5.8 13.3 6.9 14 21.9 14l10.5-.1-4-2.4c-12.8-7.6-14.4-8.9-15-11.6-1.5-6.9 7.4-56.1 15-82.5 2.5-8.6 4.6-15.9 4.7-16.3.1-.3.4 2.1.7 5.4l.6 6 6.3-12.3c3.4-6.7 6.4-12.2 6.6-12.2.3 0 .2 1.6-.1 3.5-.3 1.9-.3 3.5 0 3.5s3.9-4.6 8.1-10.3c4.2-5.6 8.7-11.6 10.2-13.2l2.6-3-.7 3.4c-.8 3.6-.7 3.6 4.8-.1 3.3-2.4 3.3-2.5 1.2 11.2-.8 5.2-1.5 11.1-1.5 13 .1 3.4.1 3.4 1.6 1.5 1.4-1.8 1.5-1.3 1.4 6.5-.3 13.8-.1 19 .9 19 .5 0 1.2-1 1.6-2.3.6-1.8.8-1.5 1.6 2.3 1.5 7.4 6.4 15.8 16.9 29 5.6 6.9 13.9 17.9 18.5 24.5 13.9 19.7 14.3 20.3 20.5 25.4 8.7 7.3 16.1 8.9 20.4 4.5 2.8-2.8 1.9-5.7-3.3-10.2-8.7-7.4-21.6-24.3-27.3-35.7-3.4-6.7-12-30.9-14.8-41.8-2.9-11-2.8-11.2 10.1-25.8 5.2-5.8 12.3-15.1 15.9-20.8 10.1-16.1 8.6-15.6 14.8-5.1 2.9 4.9 5.6 9 5.9 9 .3 0 .3-2 .1-4.5-.9-7.4.8-6.1 3.7 2.7 3.4 10.4 3.8 11 4.5 7.4l.5-3 2.5 3.7c1.4 2 2.8 3.7 3.3 3.7.4 0 .7-2.4.8-5.3v-5.2l2.5 6.5c1.4 3.6 2.7 7.1 3 7.9.7 2.2 1.4.8 3.3-7l1.7-7.4 1.9 5.2c1 2.9 2.3 5.3 2.7 5.3.5 0 2-2.4 3.3-5.3l2.5-5.2v10.9l6-5.9 6-5.9v4.2c0 2.3.3 4.2.8 4.2.4 0 3.1-1.6 5.9-3.5 2.9-1.9 5.4-3.5 5.5-3.5.2 0 .4 5.1.4 11.4.2 12.2 2 28 3.4 30.6.5.8 1 1 1 .5 0-.6 1.8 3.5 3.9 9 2.1 5.5 5.6 13.6 7.8 18 7.8 15.3 9.7 24.4 8 37.6-1.5 11.9 0 14.8 10.2 20.1 10.1 5.2 16.6 7 24.7 6.6 9.7-.4 9.4-2-1.5-6.9-8.1-3.8-9.1-4.6-10.5-8-1.9-4.8-3.1-13.9-2.2-17.3.8-3.1 17.9-24.6 26.7-33.6 3.5-3.6 10.3-9.5 15-13.2 8.4-6.5 14.9-14.3 14.9-17.9 0-2.5-4.6-19.6-8.6-32-1.9-6.1-3.3-11.6-3.1-12.2.2-.7 4-3 8.3-5.1 4.3-2.2 11.3-6.3 15.6-9.2l7.7-5.1-.6 2.8c-.3 1.7-.1 2.9.5 2.9 1.5 0 8.8-9.5 12.9-16.7 3.3-5.9 6.4-9.7 5-6-.3.9-.2 1.9.3 2.2 1.5.9 14.5-19.5 21.5-34 9.3-19 16.4-44.3 20.1-71.6 1.8-13.5 2.3-39.9 1.4-85.4l-.5-26.1 3.8-7.6c4.4-8.9 8.4-12.8 13.2-12.8 5.4 0 13.2-2 15.8-4 1.4-1.1 2.7-3.2 3-4.8.4-1.8 1.4-3.1 2.6-3.5 2.7-.7 2.8-4.6.1-8-1.1-1.4-2-4-2-6.1 0-3.9.1-3.9-11.8-5-7.5-.7-11-3.1-16.2-11-2.5-3.7-5.7-7.4-7.1-8.2-1.4-.7-6.6-1.9-11.5-2.5-4.9-.7-9-1.3-9.1-1.4-.2-.1 2.2-2.7 5.2-5.8 5.1-5.2 9.5-11.2 9.5-12.9 0-.4-.7-1.4-1.6-2.2-1.9-2-8.2-2-14.9 0zM318 388.2c0-3.5 1.4-2.6 4 2.5 2.2 4.5 2.4 4.7 3 2.3.7-2.4.7-2.4 2.6 1.4l1.9 3.8 1.1-2.7c1-2.5 1.1-2.4 2.4 2.9l1.3 5.5-3.3 3.8c-8.5 9.7-21.5 23.3-22.3 23.3-1.2 0 1.1-35.7 2.9-43.9l.5-2.4 3 2.9c2.8 2.7 2.9 2.7 2.9.6z"/></svg>